<svg width="412" height="50" viewBox="0 0 412 50" fill="none" xmlns="http://www.w3.org/2000/svg">
<path d="M49.0085 44.1045C44.9394 48.0125 40.2218 49.9777 34.8671 49.9777H0V39.9844H34.8671C37.6395 39.9844 39.9983 39.0018 41.9546 37.0478C43.9109 35.0938 44.8835 32.7378 44.8835 29.9911V19.9978C44.8835 17.2287 43.9109 14.8615 41.9546 12.9075C39.9983 10.9535 37.6395 9.97097 34.8671 9.97097H0V0H34.8671C40.2218 0 44.9282 1.954 49.0085 5.87316C52.9211 9.94864 54.8774 14.6606 54.8774 20.0201V30.0134C54.8774 35.3506 52.9211 40.0514 49.0085 44.1268V44.1045ZM116.798 39.9844V49.9777H61.8531V0H116.798V9.9933H71.8359V20.0201H106.815V30.0134H71.8359V40.0067H116.798V39.9844ZM178.718 39.9844V49.9777H123.773V0H178.718V9.9933H133.756V20.0201H168.735V30.0134H133.756V40.0067H178.718V39.9844ZM235.462 25.0335C233.964 27.5458 231.952 29.5556 229.437 31.063C226.921 32.5703 224.127 33.3184 221.064 33.3184H195.687V49.9777H185.705V0H221.064C224.138 0 226.933 0.748102 229.437 2.25547C231.952 3.76284 233.953 5.77267 235.462 8.29611C236.96 10.8196 237.709 13.611 237.709 16.6592C237.709 19.7075 236.96 22.5324 235.462 25.0447V25.0335ZM225.77 11.9361C224.462 10.6297 222.897 9.98214 221.052 9.98214H195.676V23.3251H221.052C222.886 23.3251 224.462 22.6775 225.77 21.3711C227.067 20.0648 227.726 18.5016 227.726 16.6592C227.726 14.8169 227.078 13.2537 225.77 11.9473V11.9361Z" fill="black"/>
<path d="M259.486 19.8303C260.794 19.9866 262.247 20.0536 263.845 20.0536H264.717C268.63 20.1206 272.531 20.1318 276.444 20.0871H277.596C279.507 20.0648 281.396 20.0313 283.286 19.9866C283.934 19.9866 284.605 19.9754 285.275 19.9531C286.829 19.9084 288.484 19.9754 290.217 20.1653C291.949 20.3551 293.682 20.8464 295.404 21.6726C299.708 23.8834 302.357 27.3895 303.363 32.1907C303.777 34.4462 303.71 36.6682 303.151 38.8566C302.547 41.1903 301.44 43.2448 299.83 45.0424C298.388 46.628 296.712 47.845 294.8 48.7048C292.888 49.5645 290.887 50 288.797 50H246.35V40.0067H288.797C290.15 40.0067 291.346 39.4596 292.397 38.3653C293.47 37.1594 293.85 35.7191 293.548 34.0665C293.224 32.481 292.374 31.3421 290.999 30.6387C289.512 30.0357 287.657 29.8013 285.454 29.9352C284.806 29.9576 284.146 29.9687 283.498 29.9687C281.586 30.0134 279.641 30.0469 277.674 30.0692H276.522C272.543 30.1362 268.541 30.1251 264.516 30.0357H263.745C261.576 30.0804 259.284 29.9017 256.847 29.4886C254.41 29.0866 252.074 27.9812 249.816 26.1836C248.206 24.8102 246.954 23.1353 246.049 21.1702C245.143 19.205 244.685 17.1393 244.685 14.9732C244.685 12.2264 245.355 9.71416 246.708 7.44752C248.061 5.18088 249.872 3.36087 252.141 2.02099C254.41 0.669941 256.915 0 259.665 0H301.273V9.9933H259.665C258.29 9.9933 257.116 10.4846 256.143 11.456C255.171 12.4386 254.679 13.611 254.679 14.9844C254.679 16.3577 255.215 17.5525 256.288 18.5797C257.127 19.2497 258.2 19.674 259.497 19.8191L259.486 19.8303ZM388.681 9.9933V49.9888H378.698V9.9933H356.217V0.011166H412V10.0045H388.681V9.9933Z" fill="#36013F"/>
<path fill-rule="evenodd" clip-rule="evenodd" d="M341.103 0C341.103 0 346.47 14.2924 353.512 27.3898C359.857 39.1956 367.937 49.9239 367.977 49.9774H356.63C356.6 49.9401 354.526 47.3632 351.828 43.5124C348.61 44.7162 342.452 46.6953 336.721 46.6953C330.895 46.6953 323.863 44.6494 320.243 43.4525C317.381 47.344 315.125 49.95 315.101 49.9774H303.754C303.77 49.9577 312.3 39.337 318.622 27.5795C325.689 14.4545 330.615 0.0373934 330.628 0H341.103ZM335.866 11.4067C335.73 11.8952 332.772 22.3869 327.554 32.0905C326.219 34.5676 324.713 36.9879 323.224 39.2097C324.652 39.6674 326.453 40.1824 328.458 40.6152C328.423 40.5182 328.404 40.4199 328.404 40.3197C328.404 38.9129 331.903 37.7846 336.218 37.7846C340.533 37.7846 344.032 38.9129 344.032 40.3197C344.032 40.4728 343.988 40.6214 343.909 40.7668C345.898 40.3307 347.631 39.7814 348.981 39.2893C347.499 37.0025 345.978 34.5026 344.602 31.9455C339.407 22.2866 336.023 11.8929 335.866 11.4067Z" fill="#36013F"/>
</svg>
